<svg width="40" height="40" viewBox="0 0 40 40" fill="none" xmlns="http://www.w3.org/2000/svg">
<path d="M16.5417 35.2084L12.4167 27.5417L4.75 23.4167L7.70833 20.5L13.75 21.5417L18 17.2917L4.79167 11.6667L8.29167 8.08335L24.3333 10.9167L29.5 5.75002C30.1389 5.11113 30.9306 4.79169 31.875 4.79169C32.8194 4.79169 33.6111 5.11113 34.25 5.75002C34.8889 6.38891 35.2083 7.17363 35.2083 8.10419C35.2083 9.03474 34.8889 9.81946 34.25 10.4584L29.0417 15.6667L31.875 31.6667L28.3333 35.2084L22.6667 22L18.4167 26.25L19.5 32.25L16.5417 35.2084Z" fill="#FFAD33"/>
</svg>
