<svg width="47" height="40" viewBox="0 0 47 40" fill="none" xmlns="http://www.w3.org/2000/svg">
<path d="M3.84619 31.6666V21.6666C3.84619 20.9166 4.02247 20.2361 4.37504 19.625C4.7276 19.0139 5.19235 18.4722 5.76927 18V13.3333C5.76927 11.9444 6.33017 10.7639 7.45196 9.79165C8.57376 8.81942 9.93593 8.33331 11.5385 8.33331H19.2308C19.968 8.33331 20.6571 8.45137 21.2981 8.68748C21.9391 8.92359 22.5321 9.24998 23.077 9.66665C23.6218 9.24998 24.2148 8.92359 24.8558 8.68748C25.4968 8.45137 26.1859 8.33331 26.9231 8.33331H34.6154C36.218 8.33331 37.5802 8.81942 38.702 9.79165C39.8238 10.7639 40.3847 11.9444 40.3847 13.3333V18C40.9616 18.4722 41.4263 19.0139 41.7789 19.625C42.1314 20.2361 42.3077 20.9166 42.3077 21.6666V31.6666H38.4616V28.3333H7.69235V31.6666H3.84619ZM25 16.6666H36.5385V13.3333C36.5385 12.8611 36.3542 12.4653 35.9856 12.1458C35.617 11.8264 35.1603 11.6666 34.6154 11.6666H26.9231C26.3782 11.6666 25.9215 11.8264 25.5529 12.1458C25.1843 12.4653 25 12.8611 25 13.3333V16.6666ZM9.61542 16.6666H21.1539V13.3333C21.1539 12.8611 20.9696 12.4653 20.601 12.1458C20.2324 11.8264 19.7757 11.6666 19.2308 11.6666H11.5385C10.9936 11.6666 10.5369 11.8264 10.1683 12.1458C9.79972 12.4653 9.61542 12.8611 9.61542 13.3333V16.6666ZM7.69235 25H38.4616V21.6666C38.4616 21.1944 38.2773 20.7986 37.9087 20.4791C37.5401 20.1597 37.0834 20 36.5385 20H9.61542C9.07055 20 8.61382 20.1597 8.24523 20.4791C7.87664 20.7986 7.69235 21.1944 7.69235 21.6666V25Z" fill="#FFAD33"/>
</svg>
