<svg width="40" height="40" viewBox="0 0 40 40" fill="none" xmlns="http://www.w3.org/2000/svg">
<path d="M9.70833 36.6666L11.9583 31.5833C11.5694 31.2778 11.1944 30.9791 10.8333 30.6875C10.4722 30.3958 10.125 30.0833 9.79167 29.75C9.56944 29.8333 9.35417 29.8958 9.14583 29.9375C8.9375 29.9791 8.70833 30 8.45833 30C7.54167 30 6.75694 29.6736 6.10417 29.0208C5.45139 28.368 5.125 27.5833 5.125 26.6666C5.125 26.1111 5.24306 25.6041 5.47917 25.1458C5.71528 24.6875 6.04167 24.3055 6.45833 24C6.23611 23.3611 6.08333 22.7153 6 22.0625C5.91667 21.4097 5.875 20.7222 5.875 20C5.875 19.2778 5.91667 18.5903 6 17.9375C6.08333 17.2847 6.23611 16.6389 6.45833 16C6.04167 15.6944 5.71528 15.3125 5.47917 14.8541C5.24306 14.3958 5.125 13.8889 5.125 13.3333C5.125 12.4166 5.45139 11.6319 6.10417 10.9791C6.75694 10.3264 7.54167 9.99998 8.45833 9.99998C8.70833 9.99998 8.9375 10.0208 9.14583 10.0625C9.35417 10.1041 9.56944 10.1666 9.79167 10.25C10.7083 9.24998 11.7569 8.41665 12.9375 7.74998C14.1181 7.08331 15.375 6.58331 16.7083 6.24998C16.8472 5.41665 17.2292 4.7222 17.8542 4.16665C18.4792 3.61109 19.2083 3.33331 20.0417 3.33331C20.875 3.33331 21.6042 3.61804 22.2292 4.18748C22.8542 4.75692 23.2361 5.44442 23.375 6.24998C24.7083 6.58331 25.9653 7.07637 27.1458 7.72915C28.3264 8.38192 29.375 9.19442 30.2917 10.1666C30.5139 10.0833 30.7222 10.0208 30.9167 9.97915C31.1111 9.93748 31.3194 9.91665 31.5417 9.91665C32.4583 9.91665 33.2431 10.243 33.8958 10.8958C34.5486 11.5486 34.875 12.3333 34.875 13.25C34.875 13.8055 34.7639 14.2986 34.5417 14.7291C34.3194 15.1597 34.0139 15.5278 33.625 15.8333C33.8472 16.5 34 17.1805 34.0833 17.875C34.1667 18.5694 34.2083 19.2778 34.2083 20C34.2083 20.7222 34.1667 21.4236 34.0833 22.1041C34 22.7847 33.8472 23.4444 33.625 24.0833C34.0139 24.3889 34.3194 24.7569 34.5417 25.1875C34.7639 25.618 34.875 26.1111 34.875 26.6666C34.875 27.5833 34.5486 28.368 33.8958 29.0208C33.2431 29.6736 32.4583 30 31.5417 30C31.3194 30 31.1111 29.9791 30.9167 29.9375C30.7222 29.8958 30.5139 29.8333 30.2917 29.75C29.9583 30.0833 29.6181 30.4097 29.2708 30.7291C28.9236 31.0486 28.5417 31.3611 28.125 31.6666L30.2917 36.6666H27.2083L25.625 33C25.2361 33.1666 24.8611 33.3125 24.5 33.4375C24.1389 33.5625 23.7639 33.6666 23.375 33.75C23.2361 34.5555 22.8542 35.243 22.2292 35.8125C21.6042 36.3819 20.875 36.6666 20.0417 36.6666C19.2083 36.6666 18.4792 36.3889 17.8542 35.8333C17.2292 35.2778 16.8472 34.5833 16.7083 33.75C16.2917 33.6666 15.8958 33.5625 15.5208 33.4375C15.1458 33.3125 14.7639 33.1666 14.375 33L12.7917 36.6666H9.70833ZM12.875 29.4166L15.4583 23.5833C15.0694 23.0833 14.7639 22.5278 14.5417 21.9166C14.3194 21.3055 14.2083 20.6666 14.2083 20C14.2083 18.4166 14.7847 17.0486 15.9375 15.8958C17.0903 14.743 18.4583 14.1666 20.0417 14.1666C21.625 14.1666 22.9931 14.743 24.1458 15.8958C25.2986 17.0486 25.875 18.4166 25.875 20C25.875 20.6666 25.7569 21.3194 25.5208 21.9583C25.2847 22.5972 24.9583 23.1666 24.5417 23.6666L27.125 29.4166C27.375 29.1944 27.6181 28.993 27.8542 28.8125C28.0903 28.6319 28.3194 28.4166 28.5417 28.1666C28.4028 27.9444 28.3125 27.7014 28.2708 27.4375C28.2292 27.1736 28.2083 26.9166 28.2083 26.6666C28.2083 25.7778 28.5139 25.0139 29.125 24.375C29.7361 23.7361 30.4861 23.3889 31.375 23.3333C31.5417 22.7778 31.6667 22.2291 31.75 21.6875C31.8333 21.1458 31.875 20.5833 31.875 20C31.875 19.4166 31.8333 18.8403 31.75 18.2708C31.6667 17.7014 31.5417 17.1389 31.375 16.5833C30.4861 16.5278 29.7361 16.1805 29.125 15.5416C28.5139 14.9028 28.2083 14.1389 28.2083 13.25C28.2083 13 28.2431 12.7569 28.3125 12.5208C28.3819 12.2847 28.4583 12.0555 28.5417 11.8333C27.7361 11.0278 26.8472 10.3472 25.875 9.79165C24.9028 9.23609 23.875 8.80553 22.7917 8.49998C22.4861 8.9722 22.0972 9.34026 21.625 9.60415C21.1528 9.86803 20.625 9.99998 20.0417 9.99998C19.4583 9.99998 18.9306 9.86803 18.4583 9.60415C17.9861 9.34026 17.5972 8.9722 17.2917 8.49998C16.1528 8.80553 15.0972 9.24303 14.125 9.81248C13.1528 10.3819 12.2639 11.0833 11.4583 11.9166C11.5417 12.1389 11.6181 12.368 11.6875 12.6041C11.7569 12.8403 11.7917 13.0833 11.7917 13.3333C11.7917 14.2222 11.5 14.9791 10.9167 15.6041C10.3333 16.2291 9.59722 16.5833 8.70833 16.6666C8.54167 17.2222 8.41667 17.7708 8.33333 18.3125C8.25 18.8541 8.20833 19.4166 8.20833 20C8.20833 20.5833 8.25 21.1458 8.33333 21.6875C8.41667 22.2291 8.54167 22.7778 8.70833 23.3333C9.59722 23.3889 10.3333 23.7361 10.9167 24.375C11.5 25.0139 11.7917 25.7778 11.7917 26.6666C11.7917 26.9166 11.7708 27.1597 11.7292 27.3958C11.6875 27.6319 11.5972 27.8611 11.4583 28.0833C11.6806 28.3333 11.9097 28.5625 12.1458 28.7708C12.3819 28.9791 12.625 29.1944 12.875 29.4166ZM15.375 30.8333C15.6806 30.9722 15.9931 31.0972 16.3125 31.2083C16.6319 31.3194 16.9583 31.4166 17.2917 31.5C17.5972 31.0278 17.9861 30.6597 18.4583 30.3958C18.9306 30.1319 19.4583 30 20.0417 30C20.625 30 21.1528 30.1319 21.625 30.3958C22.0972 30.6597 22.4861 31.0278 22.7917 31.5C23.125 31.4166 23.4375 31.3194 23.7292 31.2083C24.0208 31.0972 24.3194 30.9722 24.625 30.8333L22.2083 25.4166C21.875 25.5555 21.5278 25.6597 21.1667 25.7291C20.8056 25.7986 20.4306 25.8333 20.0417 25.8333C19.625 25.8333 19.2292 25.7916 18.8542 25.7083C18.4792 25.625 18.125 25.5 17.7917 25.3333L15.375 30.8333ZM20.0417 22.5C20.7083 22.5 21.2917 22.2639 21.7917 21.7916C22.2917 21.3194 22.5417 20.7222 22.5417 20C22.5417 19.3333 22.2917 18.75 21.7917 18.25C21.2917 17.75 20.7083 17.5 20.0417 17.5C19.3194 17.5 18.7222 17.75 18.25 18.25C17.7778 18.75 17.5417 19.3333 17.5417 20C17.5417 20.7222 17.7778 21.3194 18.25 21.7916C18.7222 22.2639 19.3194 22.5 20.0417 22.5Z" fill="#FFAD33"/>
</svg>
